<svg xmlns="http://www.w3.org/2000/svg" xmlns:xlink="http://www.w3.org/1999/xlink" preserveAspectRatio="xMidYMid" width="720" height="432" viewBox="0 0 720 432">
  <defs>
    <style>
      .cls-1 {
        stroke: #ff6656;
        stroke-width: 2px;
        fill: none;
        fill-rule: evenodd;
      }
    </style>
  </defs>
  <path d="M192.648,98.344 C183.176,131.615 152.108,204.658 127.469,228.879 C124.965,228.297 122.461,227.715 119.957,227.133 C119.957,179.760 173.164,120.449 223.516,120.449 C226.107,121.915 228.698,123.382 231.289,124.848 C242.173,146.741 219.076,161.122 200.801,165.645 C193.688,167.055 186.574,168.465 179.461,169.875 C179.763,169.645 180.065,169.414 180.367,169.184 C181.276,169.788 182.185,170.392 183.094,170.996 C183.396,171.374 183.698,171.751 184.000,172.129 C194.349,185.927 178.340,209.250 191.777,222.687 C192.986,223.141 194.194,223.594 195.402,224.047 C214.448,224.047 216.849,174.630 245.363,170.824 C248.416,172.152 251.470,173.481 254.523,174.809 C255.591,176.729 256.659,178.650 257.727,180.570 C259.433,190.896 259.724,200.277 255.152,209.863 C249.600,217.561 237.174,222.170 227.945,219.094 C227.561,218.710 227.177,218.325 226.793,217.941 C222.368,207.985 223.911,192.853 228.652,183.207 C229.409,182.516 230.165,181.824 230.922,181.133 C243.434,181.133 252.875,187.294 265.766,186.262 C290.115,184.312 353.902,130.448 353.902,105.684 C353.672,105.530 353.441,105.376 353.211,105.223 C351.675,104.531 350.138,103.840 348.602,103.148 C328.310,113.122 263.883,196.169 284.094,216.379 C287.080,217.273 290.068,218.168 293.055,219.062 C295.140,218.406 297.227,217.750 299.312,217.094 C310.644,205.566 319.005,184.149 312.336,168.254 C309.181,168.493 306.026,168.733 302.871,168.973 C302.061,170.767 301.251,172.561 300.441,174.355 C301.293,176.905 302.145,179.455 302.996,182.004 C320.390,194.993 337.647,167.410 355.184,167.410 C357.522,168.741 359.861,170.072 362.199,171.402 C366.523,179.025 370.322,194.365 366.000,202.863 C364.436,205.409 362.872,207.955 361.309,210.500 C356.542,211.411 351.774,212.323 347.008,213.234 C338.588,209.024 337.875,199.878 337.875,191.223 C340.118,186.870 342.362,182.516 344.605,178.164 C356.124,172.579 368.117,180.275 380.113,178.184 C403.682,174.075 447.531,112.218 447.531,90.156 C446.491,88.098 445.450,86.039 444.410,83.980 C435.652,83.980 428.040,106.664 425.254,111.691 C415.860,128.645 388.441,195.900 412.996,210.582 C415.018,210.828 417.041,211.074 419.062,211.320 C419.062,184.264 395.606,136.419 376.484,117.297 C376.331,117.523 376.177,117.750 376.023,117.977 C375.639,119.639 375.255,121.302 374.871,122.965 C375.924,124.724 376.978,126.483 378.031,128.242 C393.187,143.485 424.269,142.565 443.801,143.844 C451.814,143.669 459.830,143.495 467.844,143.320 " class="cls-1"/>
</svg>
